# AST/ASF file generated using VICON BodyLanguage
# -----------------------------------------------
:version 1.10
:name VICON
:units
  mass 1.0
  length 0.45
  angle deg
:documentation
   .ast/.asf automatically generated from VICON data using
   VICON BodyBuilder and BodyLanguage model FoxedUp or BRILLIANT.MOD
:root
   order TX TY TZ RX RY RZ
   axis XYZ
   position 0 0 0  
   orientation 0 0 0 
:bonedata
  begin
     id 1 
     name lhipjoint
     direction 0.612567 -0.751349 0.245431 
     length 2.42285 
     axis 0 0 0  XYZ
  end
  begin
     id 2 
     name lfemur
     direction 0.34202 -0.939693 0  
     length 7.11304  
     axis 0 0 20  XYZ
    dof rx ry rz
    limits (-160.0 20.0)
           (-70.0 70.0)
           (-60.0 70.0)
  end
  begin
     id 3 
     name ltibia
     direction 0.34202 -0.939693 0   
     length 7.84529   
     axis 0 0 20   XYZ
    dof rx
    limits (-10.0 170.0)
  end
  begin
     id 4 
     name lfoot
     direction 0.0779239 -0.214094 0.9737   
     length 1.97176   
     axis -90 7.62852e-016 20   XYZ
    dof rx rz
    limits (-45.0 90.0)
           (-70.0 20.0)
  end
  begin
     id 5 
     name ltoes
     direction 1.53565e-011 -4.21709e-011 1   
     length 0.993197   
     axis -90 7.62852e-016 20   XYZ
    dof rx
    limits (-90.0 20.0)
  end
  begin
     id 6 
     name rhipjoint
     direction -0.665722 -0.709315 0.231701   
     length 2.56642  
     axis 0 0 0  XYZ 
  end
  begin
     id 7 
     name rfemur
     direction -0.34202 -0.939693 0   
     length 7.32108   
     axis 0 0 -20   XYZ
    dof rx ry rz
    limits (-160.0 20.0)
           (-70.0 70.0)
           (-70.0 60.0)
  end
  begin
     id 8 
     name rtibia
     direction -0.34202 -0.939693 0   
     length 7.81254   
     axis 0 0 -20   XYZ
    dof rx
    limits (-10.0 170.0)
 end
 begin
     id 9 
     name rfoot
     direction -0.0832806 -0.228812 0.969902   
     length 2.08278  
     axis -90 -7.62852e-016 -20   XYZ
    dof rx rz
    limits (-45.0 90.0)
           (-20.0 70.0)
  end
  begin
     id 10 
     name rtoes
     direction -1.53589e-011 -4.22086e-011 1   
     length 1.04609   
     axis -90 -7.62852e-016 -20   XYZ
    dof rx
    limits (-90.0 20.0)
  end
  begin
     id 11 
     name lowerback
     direction -0.00506013 0.988403 -0.151766   
     length 2.01978   
     axis 0 0 0   XYZ
    dof rx ry rz
    limits (-20.0 45.0)
           (-30.0 30.0)
           (-30.0 30.0)
  end
  begin
     id 12 
     name upperback
     direction -0.00836389 0.99968 0.0238859   
     length 2.01276   
     axis 0 0 0   XYZ
    dof rx ry rz
    limits (-20.0 45.0)
           (-30.0 30.0)
           (-30.0 30.0)
  end
  begin
     id 13 
     name thorax
     direction -0.00684136 0.995386 0.0957043   
     length 2.07303   
     axis 0 0 0   XYZ
    dof rx ry rz
    limits (-20.0 45.0)
           (-30.0 30.0)
           (-30.0 30.0)
  end
  begin
     id 14 
     name lowerneck
     direction -0.0161045 0.999661 0.0204485   
     length 1.91243   
     axis 0 0 0   XYZ
    dof rx ry rz
    limits (-20.0 45.0)
           (-30.0 30.0)
           (-30.0 30.0)
  end
  begin
     id 15 
     name upperneck
     direction 0.0553583 0.990946 -0.122319   
     length 1.91574   
     axis 0 0 0   XYZ
    dof rx ry rz
    limits (-20.0 45.0)
           (-30.0 30.0)
           (-30.0 30.0)
  end
  begin
     id 16
     name head
     direction 0.0180273 0.998839 -0.0446756  
     length 1.92693  
     axis 0 0 0   XYZ
    dof rx ry rz
    limits (-20.0 45.0)
           (-30.0 30.0)
           (-30.0 30.0)
  end
  begin
     id 17 
     name lclavicle
     direction 0.945646 0.319323 -0.0615358  
     length 4.0076  
     axis 0 0 0   XYZ
    dof ry rz
    limits (-20.0 10.0)
           (0.0 20.0)
  end
  begin
     id 18 
     name lhumerus
     direction 1 -4.48967e-011 -2.79996e-027   
     length 5.64147   
     axis 180 -30 -90   XYZ
    dof rx ry rz
    limits (-60.0 90.0)
           (-90.0 90.0)
           (-90.0 90.0)
  end
  begin
     id 19
     name lradius
     direction 1 -4.48976e-011 -9.5122e-027   
     length 2.86444   
     axis 180 -30 -90   XYZ
    dof rx
    limits (-10.0 170.0)
  end
  begin
     id 20
     name lwrist
     direction 1 -4.48983e-011 -1.24047e-026   
     length 1.43222   
     axis 9.05591e-015 90 90   XYZ
    dof ry
    limits (-180.0 0.0)
 end
  begin
     id 21 
     name lhand
     direction 1 -4.4892e-011 -2.48094e-026   
     length 0.722123   
     axis 1.58305e-014 90 90   XYZ
    dof rx rz
    limits (-90.0 90.0)
           (-45.0 45.0)
  end
  begin
     id 22 
     name lfingers
     direction 1 -4.48895e-011 -4.96187e-026   
     length 0.582194   
     axis 3.1661e-014 90 90   XYZ
    dof rx
    limits (0.0 90.0)
  end
  begin
     id 23
     name lthumb
     direction 0.707107 -6.34961e-011 0.707107   
     length 0.835918   
     axis -90 45 2.85299e-015   XYZ
    dof rx rz
    limits (-45.0 45.0)
           (-45.0 45.0)
  end
  begin
     id 24 
     name rclavicle
     direction -0.932635 0.324218 -0.15835   
     length 3.65819  
     axis 0 0 0   XYZ 
    dof ry rz
    limits (-10.0 20.0)
           (-20.0 0.0)
  end
  begin
     id 25 
     name rhumerus
     direction -1 -4.48965e-011 -4.02296e-027  
     length 5.44729   
     axis 180 30 90   XYZ
    dof rx ry rz
    limits (-90.0 60.0)
           (-90.0 90.0)
           (-90.0 90.0)
  end
  begin
     id 26 
     name rradius
     direction -1 -4.48957e-011 -8.81087e-027   
     length 3.08821   
     axis 180 30 90   XYZ
    dof rx
    limits (-10.0 170.0)
  end
  begin
     id 27 
     name rwrist
     direction -1 -4.49015e-011 -1.24047e-026   
     length 1.5441   
     axis 9.05591e-015 -90 -90   XYZ
    dof ry
    limits (-180.0 0.0)
  end
  begin
     id 28
     name rhand
     direction -1 -4.4891e-011 -2.48094e-026   
     length 0.821049   
     axis 1.58305e-014 -90 -90   XYZ
    dof rx rz
    limits (-90.0 90.0)
           (-45.0 45.0)
  end
  begin
     id 29
     name rfingers
     direction -1 -4.48985e-011 -4.96187e-026   
     length 0.661951   
     axis 3.1661e-014 -90 -90   XYZ
    dof rx
    limits (0.0 90.0)
  end
  begin
     id 30
     name rthumb
     direction -0.707107 -6.34906e-011 0.707107   
     length 0.950433   
     axis -90 -45 -2.85299e-015   XYZ
    dof rx rz
    limits (-45.0 45.0)
           (-45.0 45.0)
  end
:hierarchy
  begin
    root lhipjoint rhipjoint lowerback
    lhipjoint lfemur
    lfemur ltibia
    ltibia lfoot
    lfoot ltoes
    rhipjoint rfemur
    rfemur rtibia
    rtibia rfoot
    rfoot rtoes
    lowerback upperback
    upperback thorax
    thorax lowerneck lclavicle rclavicle
    lowerneck upperneck
    upperneck head
    lclavicle lhumerus
    lhumerus lradius
    lradius lwrist
    lwrist lhand lthumb
    lhand lfingers
    rclavicle rhumerus
    rhumerus rradius
    rradius rwrist
    rwrist rhand rthumb
    rhand rfingers
  end

#!OML:ASF F:\VICON\USERDATA\INSTALL\rory3\rory3.ASF
:FULLY-SPECIFIED
:DEGREES
775
root 8.35726 17.3751 7.88743 -180.029 -25.8078 -179.185
lowerback -1.08211 -1.18126 -0.71207
upperback 2.50358 -1.57634 -1.10424
thorax 3.16502 -0.809769 -0.796856
lowerneck -3.3821 -1.0729 -2.85536
upperneck 14.2529 -2.1496 3.26682
head 4.89028 -1.20612 1.35288
rclavicle 2.94201e-014 1.94809e-014
rhumerus -42.6217 -5.4305 -81.7014
rradius 21.0371
rwrist 23.5697
rhand -6.81231 9.5278
rfingers 7.12502
rthumb 19.0513 -19.5592
lclavicle 2.94201e-014 1.94809e-014
lhumerus -15.2606 -11.7402 84.3824
lradius 32.2108
lwrist 33.2601
lhand -14.2688 9.70891
lfingers 7.12502
lthumb 11.8699 39.3525
rfemur -27.232 5.75491 23.1327
rtibia 24.461
rfoot -17.0648 0.483039
rtoes -17.4073
lfemur 6.44404 11.1817 -24.5109
ltibia 11.4403
lfoot -16.4725 -5.07523
ltoes 2.81666
776
root 8.32255 17.3792 7.83079 -179.904 -25.9443 -179.432
lowerback -1.06579 -1.2178 -0.881874
upperback 2.50948 -1.62128 -1.15006
thorax 3.16504 -0.836529 -0.75041
lowerneck -3.42792 -1.11543 -2.91251
upperneck 14.2617 -2.20163 3.27859
head 4.90316 -1.23259 1.3629
rclavicle 1.25234e-014 -2.70347e-014
rhumerus -42.5572 -5.61221 -81.6868
rradius 21.1044
rwrist 23.7416
rhand -6.93618 9.50967
rfingers 7.12502
rthumb 18.9322 -19.589
lclavicle 1.25234e-014 -2.70347e-014
lhumerus -15.4658 -11.6402 84.6603
lradius 31.6785
lwrist 33.025
lhand -14.2747 9.79035
lfingers 7.12502
lthumb 11.8642 39.4342
rfemur -27.4254 5.17584 23.1639
rtibia 23.8892
rfoot -16.799 0.97905
rtoes -16.0287
lfemur 7.06587 11.3017 -24.6616
ltibia 10.6602
lfoot -16.0034 -5.2693
ltoes 3.2536
777
root 8.28876 17.3846 7.77531 -179.698 -26.0618 -179.644
lowerback -1.14813 -1.23541 -0.968444
upperback 2.50292 -1.64 -1.23655
thorax 3.20465 -0.847367 -0.793634
lowerneck -3.46503 -1.15844 -2.81286
upperneck 14.2457 -2.25864 3.23729
head 4.90502 -1.25623 1.33036
rclavicle 9.14409e-015 1.43125e-014
rhumerus -42.4559 -5.76921 -81.7786
rradius 21.1637
rwrist 23.8445
rhand -6.99486 9.59996
rfingers 7.12502
rthumb 18.8758 -19.5042
lclavicle 9.14409e-015 1.43125e-014
lhumerus -15.681 -11.488 84.8726
lradius 31.1461
lwrist 32.714
lhand -14.1838 9.72318
lfingers 7.12502
lthumb 11.9519 39.362
rfemur -27.7287 4.59 23.2242
rtibia 23.3538
rfoot -16.4104 1.31234
rtoes -16.8735
lfemur 7.6006 11.2522 -24.8095
ltibia 9.81047
lfoot -15.4546 -5.3295
ltoes 3.72369
778
root 8.25746 17.386 7.72146 -179.515 -26.2001 -179.854
lowerback -1.17139 -1.24378 -1.10203
upperback 2.47981 -1.6468 -1.27053
thorax 3.19674 -0.853734 -0.754314
lowerneck -3.49355 -1.21542 -2.8204
upperneck 14.2667 -2.328 3.18833
head 4.91819 -1.29276 1.31247
rclavicle 1.80397e-014 9.54166e-015
rhumerus -42.3698 -5.65447 -81.9042
rradius 21.2667
rwrist 23.6426
rhand -7.03509 9.62322
rfingers 7.12502
rthumb 18.8371 -19.4847
lclavicle 1.80397e-014 9.54166e-015
lhumerus -15.9204 -11.3951 85.1887
lradius 30.6186
lwrist 32.4661
lhand -14.0438 9.81786
lfingers 7.12502
lthumb 12.0868 39.4488
rfemur -28.0048 4.1435 23.2634
rtibia 22.8289
rfoot -16.104 1.41041
rtoes -17.8876
lfemur 8.18358 11.1845 -24.9615
ltibia 8.91638
lfoot -14.8618 -5.45278
ltoes 4.45529
779
root 8.22538 17.3879 7.66634 -179.392 -26.3586 -180.101
lowerback -1.10299 -1.2776 -1.30849
upperback 2.45241 -1.68866 -1.26957
thorax 3.13583 -0.879772 -0.637233
lowerneck -3.44252 -1.24331 -2.97113
upperneck 14.2431 -2.35791 3.21948
head 4.90519 -1.31374 1.34586
rclavicle -4.95471e-014 -1.07344e-014
rhumerus -42.2825 -5.33292 -82.0618
rradius 21.3772
rwrist 23.2494
rhand -7.08043 9.4285
rfingers 7.12502
rthumb 18.7935 -19.6836
lclavicle -4.95471e-014 -1.07344e-014
lhumerus -16.2 -11.2324 85.5692
lradius 30.0231
lwrist 32.2633
lhand -13.9197 9.79032
lfingers 7.12502
lthumb 12.2066 39.4141
rfemur -28.1538 3.5823 23.2957
rtibia 22.296
rfoot -15.8864 1.82701
rtoes -17.5521
lfemur 8.84218 11.1003 -25.1299
ltibia 8.08705
lfoot -14.3585 -5.53298
ltoes 4.91367
